<svg width="29" height="18" viewBox="0 0 29 18" fill="none" xmlns="http://www.w3.org/2000/svg">
<path d="M0.342773 18V0.226562H6.06787C7.63851 0.226562 9.05046 0.584635 10.3037 1.30078C11.557 2.00879 12.5335 3.01383 13.2334 4.31592C13.9414 5.60986 14.2995 7.0625 14.3076 8.67383V9.4917C14.3076 11.1193 13.9618 12.5801 13.27 13.874C12.5864 15.1598 11.618 16.1689 10.3647 16.9014C9.11963 17.6257 7.72803 17.9919 6.18994 18H0.342773ZM4.62744 3.53467V14.7041H6.1167C7.34554 14.7041 8.28955 14.2687 8.94873 13.3979C9.60791 12.519 9.9375 11.217 9.9375 9.4917V8.72266C9.9375 7.00553 9.60791 5.71159 8.94873 4.84082C8.28955 3.97005 7.32926 3.53467 6.06787 3.53467H4.62744ZM21.9185 8.42969L23.835 4.79199H28.1074L24.6284 11.2251L28.2783 18H23.9814L21.9062 14.0938L19.8677 18H15.5464L19.2085 11.2251L15.7417 4.79199H20.063L21.9185 8.42969Z" fill="white" fill-opacity="0.8"/>
</svg>
